<svg width="32" height="32" viewBox="0 0 32 32" fill="none" xmlns="http://www.w3.org/2000/svg">
<g clip-path="url(#clip0_20_6)">
<path d="M2.07393 32.0256C1.5432 32.0256 1.01208 31.8225 0.608184 31.4182C-0.202728 30.6077 -0.202728 29.2973 0.608184 28.4867L28.4604 0.634198C29.2709 -0.176325 30.5814 -0.176325 31.3919 0.634198C32.2027 1.44472 32.2027 2.75516 31.3919 3.56569L3.53967 31.4182C3.34752 31.6112 3.11908 31.7642 2.86752 31.8684C2.61595 31.9727 2.34624 32.0261 2.07393 32.0256Z" fill="#F44336"/>
<path d="M29.9262 32.0256C29.3954 32.0256 28.8647 31.8225 28.4604 31.4182L0.608184 3.56569C-0.202728 2.75516 -0.202728 1.44462 0.608184 0.634198C1.41871 -0.176325 2.72876 -0.176325 3.53967 0.634198L31.3919 28.4867C32.2027 29.2973 32.2027 30.6078 31.3919 31.4182C30.9876 31.8245 30.4569 32.0256 29.9262 32.0256Z" fill="#F44336"/>
</g>
<defs>
<clipPath id="clip0_20_6">
<rect width="32" height="32" fill="white"/>
</clipPath>
</defs>
</svg>
