<svg width="87" height="87" viewBox="0 0 87 87" fill="none" xmlns="http://www.w3.org/2000/svg">
<circle cx="43.5" cy="43.5" r="43.5" fill="#FD6E0A"/>
<path d="M43.9999 31.0262C48.1838 31.0262 51.5756 27.6345 51.5756 23.4506C51.5756 19.2667 48.1838 15.875 43.9999 15.875C39.816 15.875 36.4243 19.2667 36.4243 23.4506C36.4243 27.6345 39.816 31.0262 43.9999 31.0262Z" fill="white"/>
<path d="M30.7862 47.9891H57.2137C57.4707 47.9891 57.7171 47.887 57.8987 47.7053C58.0804 47.5237 58.1825 47.2773 58.1825 47.0203V39.6191C58.1733 38.6572 57.9627 37.7079 57.5643 36.8324C57.1659 35.9568 56.5885 35.1745 55.8694 34.5356C55.1502 33.8968 54.3052 33.4157 53.3889 33.1233C52.4725 32.8308 51.505 32.7336 50.5487 32.8378C48.6234 34.1668 46.3394 34.8785 44 34.8785C41.6606 34.8785 39.3765 34.1668 37.4512 32.8378H36.5987C34.8002 32.8378 33.0754 33.5523 31.8037 34.824C30.5319 36.0957 29.8175 37.8206 29.8175 39.6191V47.0203C29.8175 47.2773 29.9195 47.5237 30.1012 47.7053C30.2829 47.887 30.5293 47.9891 30.7862 47.9891ZM34.4384 60.6894L31.164 60.4375L29.8659 58.5C29.8659 58.5 29.8078 58.4322 29.7884 58.3934L29.1103 57.3666C29.0221 57.2327 28.902 57.1228 28.7608 57.0467C28.6196 56.9707 28.4617 56.9309 28.3014 56.9309C28.141 56.9309 27.9832 56.9707 27.842 57.0467C27.7008 57.1228 27.5807 57.2327 27.4925 57.3666L25.4387 60.4375L22.1644 60.6894C21.9832 60.7013 21.809 60.764 21.6616 60.8702C21.5143 60.9764 21.3998 61.1219 21.3312 61.29C21.2724 61.4532 21.2584 61.6291 21.2908 61.7996C21.3232 61.97 21.4007 62.1286 21.5153 62.2588L24.0534 65.0391L23.0362 68.8559C22.9887 69.0374 22.9948 69.2289 23.054 69.4069C23.1132 69.585 23.2228 69.742 23.3695 69.859C23.5162 69.9759 23.6937 70.0478 23.8805 70.0658C24.0672 70.0838 24.2552 70.0471 24.4215 69.9603L28.2965 67.8969L32.1715 69.9603C32.3381 70.0501 32.5274 70.0891 32.7159 70.0725C32.9044 70.0559 33.0839 69.9845 33.2323 69.867C33.3807 69.7495 33.4914 69.5912 33.5508 69.4115C33.6102 69.2318 33.6157 69.0387 33.5665 68.8559L32.5978 65.0391C33.1112 64.4675 34.6322 62.7819 35.1262 62.2588C35.236 62.1208 35.306 61.9555 35.3288 61.7807C35.3516 61.6059 35.3262 61.4282 35.2554 61.2667C35.1847 61.1053 35.0712 60.9662 34.9272 60.8644C34.7833 60.7627 34.6142 60.7022 34.4384 60.6894ZM22.4259 58.3547C22.599 58.355 22.769 58.309 22.9183 58.2214C23.0676 58.1337 23.1906 58.0077 23.2747 57.8564C23.3588 57.7051 23.4007 57.534 23.3963 57.361C23.3918 57.188 23.3411 57.0193 23.2494 56.8725C15.4703 44.9375 20.75 27.5872 33.8475 21.9103C34.0813 21.8024 34.2626 21.606 34.3517 21.3644C34.4407 21.1228 34.4301 20.8557 34.3222 20.6219C34.2143 20.3881 34.0179 20.2067 33.7763 20.1177C33.5346 20.0287 33.2675 20.0393 33.0337 20.1472C28.4535 22.2536 24.572 25.627 21.8477 29.8688C19.1233 34.1107 17.6701 39.0437 17.6597 44.085C17.6588 48.9675 19.0246 53.7528 21.6025 57.8994C21.6897 58.039 21.8111 58.1541 21.9552 58.2337C22.0993 58.3134 22.2613 58.355 22.4259 58.3547ZM54.1525 21.9103C67.25 27.5872 72.5297 44.9375 64.7506 56.8725C64.6144 57.0909 64.5706 57.3544 64.6287 57.6051C64.6869 57.8559 64.8422 58.0732 65.0606 58.2094C65.279 58.3456 65.5425 58.3894 65.7932 58.3313C66.044 58.2731 66.2613 58.1178 66.3975 57.8994C68.9753 53.7528 70.3411 48.9675 70.3403 44.085C70.3299 39.0437 68.8766 34.1107 66.1523 29.8688C63.428 25.627 59.5464 22.2536 54.9662 20.1472C54.7324 20.0393 54.4653 20.0287 54.2237 20.1177C53.9821 20.2067 53.7857 20.3881 53.6778 20.6219C53.5699 20.8557 53.5593 21.1228 53.6483 21.3644C53.7373 21.606 53.9187 21.8024 54.1525 21.9103ZM50.4325 64.2447L49.2506 59.7884L52.7187 56.0006C52.841 55.866 52.923 55.6997 52.9552 55.5207C52.9874 55.3417 52.9685 55.1573 52.9008 54.9885C52.8331 54.8197 52.7192 54.6734 52.5722 54.5662C52.4253 54.4591 52.2511 54.3956 52.0697 54.3828L47.6134 54.0438L44.8428 49.8878C44.7542 49.756 44.6345 49.6479 44.4943 49.5732C44.354 49.4985 44.1976 49.4594 44.0387 49.4594C43.8799 49.4594 43.7234 49.4985 43.5832 49.5732C43.443 49.6479 43.3233 49.756 43.2347 49.8878L40.4253 54.0438L35.969 54.3828C35.7843 54.3887 35.6052 54.4473 35.4527 54.5517C35.3002 54.6561 35.1807 54.802 35.1084 54.972C35.0361 55.1421 35.014 55.3293 35.0446 55.5116C35.0752 55.6938 35.1573 55.8635 35.2812 56.0006L38.7106 59.7884L37.5287 64.2447L37.335 64.9616C37.2992 65.098 37.2936 65.2406 37.3186 65.3794C37.3437 65.5181 37.3987 65.6498 37.4799 65.7651C37.5611 65.8804 37.6664 65.9766 37.7887 66.047C37.9109 66.1174 38.047 66.1602 38.1875 66.1725C38.6331 66.2984 39.4275 65.6784 39.8053 65.5331L44 63.2759L49.2312 66.0659C49.3978 66.1557 49.5871 66.1947 49.7756 66.1781C49.9641 66.1615 50.1436 66.0901 50.292 65.9726C50.4404 65.8552 50.5511 65.6968 50.6105 65.5171C50.6699 65.3375 50.6754 65.1443 50.6262 64.9616L50.4325 64.2447Z" fill="white"/>
<path d="M62.4062 55.3516C62.5769 55.3522 62.7448 55.3078 62.8928 55.2227C63.0408 55.1377 63.1637 55.015 63.249 54.8672C65.103 51.5765 66.0742 47.8621 66.0681 44.085C66.0615 40.2059 65.0384 36.3963 63.1007 33.0359C61.1629 29.6755 58.3783 26.8816 55.0243 24.9328C54.8029 24.817 54.5454 24.7912 54.3054 24.8608C54.0654 24.9304 53.8616 25.0901 53.7366 25.3064C53.6115 25.5227 53.5749 25.779 53.6344 26.0217C53.6938 26.2644 53.8447 26.4747 54.0556 26.6087C63.4331 31.8206 66.9981 44.6662 61.5634 53.9081C61.4806 54.0554 61.4378 54.2218 61.4392 54.3908C61.4406 54.5597 61.4861 54.7254 61.5713 54.8713C61.6565 55.0172 61.7784 55.1383 61.9248 55.2225C62.0713 55.3068 62.2373 55.3513 62.4062 55.3516ZM33.9056 26.6087C34.1165 26.4747 34.2674 26.2644 34.3268 26.0217C34.3863 25.779 34.3496 25.5227 34.2246 25.3064C34.0996 25.0901 33.8958 24.9304 33.6558 24.8608C33.4158 24.7912 33.1582 24.817 32.9368 24.9328C29.5829 26.8816 26.7982 29.6755 24.8605 33.0359C22.9228 36.3963 21.8997 40.2059 21.8931 44.085C21.887 47.8621 22.8581 51.5765 24.7122 54.8672C24.8406 55.0907 25.0526 55.254 25.3015 55.3213C25.5504 55.3885 25.8158 55.3541 26.0393 55.2256C26.2629 55.0972 26.4262 54.8852 26.4934 54.6363C26.5607 54.3874 26.5262 54.122 26.3978 53.8984C20.9631 44.6662 24.5281 31.8206 33.9056 26.6087ZM65.8356 60.6894L62.5903 60.4375L60.4687 57.3569C60.3805 57.223 60.2604 57.1131 60.1192 57.037C59.978 56.961 59.8202 56.9212 59.6598 56.9212C59.4995 56.9212 59.3416 56.961 59.2004 57.037C59.0592 57.1131 58.9391 57.223 58.8509 57.3569L58.134 58.4322C58.1038 58.4678 58.0778 58.5068 58.0565 58.5484L56.8359 60.4375L53.5615 60.6894C53.3803 60.7013 53.2061 60.764 53.0588 60.8702C52.9115 60.9764 52.797 61.1219 52.7284 61.29C52.37 61.9972 53.3 62.6656 53.6972 63.1403L55.4603 65.0778C55.2762 65.785 54.6465 68.1391 54.4431 68.8947C54.394 69.0774 54.3994 69.2706 54.4588 69.4503C54.5182 69.6299 54.6289 69.7883 54.7773 69.9057C54.9257 70.0232 55.1052 70.0946 55.2937 70.1112C55.4823 70.1278 55.6715 70.0888 55.8381 69.9991L59.7131 67.9356L63.5881 69.9991C63.7544 70.0859 63.9424 70.1225 64.1292 70.1045C64.3159 70.0865 64.4935 70.0147 64.6402 69.8977C64.7869 69.7808 64.8965 69.6237 64.9556 69.4457C65.0148 69.2676 65.021 69.0762 64.9734 68.8947L64.0047 65.0778L66.5428 62.2975C66.6646 62.1589 66.7444 61.9883 66.7726 61.8059C66.8008 61.6235 66.7763 61.4369 66.702 61.2679C66.6277 61.099 66.5067 60.9548 66.3532 60.8523C66.1997 60.7498 66.0201 60.6933 65.8356 60.6894Z" fill="white"/>
</svg>
