<svg width="48" height="48" viewBox="0 0 48 48" fill="none" xmlns="http://www.w3.org/2000/svg">
<g clip-path="url(#clip0_11_2)">
<path d="M45.6 26.4H2.4C1.76348 26.4 1.15303 26.1471 0.702944 25.6971C0.252856 25.247 0 24.6365 0 24C0 23.3635 0.252856 22.753 0.702944 22.3029C1.15303 21.8529 1.76348 21.6 2.4 21.6H45.6C46.2365 21.6 46.847 21.8529 47.2971 22.3029C47.7471 22.753 48 23.3635 48 24C48 24.6365 47.7471 25.247 47.2971 25.6971C46.847 26.1471 46.2365 26.4 45.6 26.4ZM45.6 9.6H2.4C1.76348 9.6 1.15303 9.34715 0.702944 8.89706C0.252856 8.44697 0 7.83652 0 7.2C0 6.56348 0.252856 5.95303 0.702944 5.50295C1.15303 5.05286 1.76348 4.8 2.4 4.8H45.6C46.2365 4.8 46.847 5.05286 47.2971 5.50295C47.7471 5.95303 48 6.56348 48 7.2C48 7.83652 47.7471 8.44697 47.2971 8.89706C46.847 9.34715 46.2365 9.6 45.6 9.6ZM45.6 43.2H2.4C1.76348 43.2 1.15303 42.9471 0.702944 42.4971C0.252856 42.047 0 41.4365 0 40.8C0 40.1635 0.252856 39.553 0.702944 39.1029C1.15303 38.6529 1.76348 38.4 2.4 38.4H45.6C46.2365 38.4 46.847 38.6529 47.2971 39.1029C47.7471 39.553 48 40.1635 48 40.8C48 41.4365 47.7471 42.047 47.2971 42.4971C46.847 42.9471 46.2365 43.2 45.6 43.2Z" fill="black"/>
</g>
<defs>
<clipPath id="clip0_11_2">
<rect width="48" height="48" fill="white"/>
</clipPath>
</defs>
</svg>
