<svg width="48" height="48" viewBox="0 0 48 48" fill="none" xmlns="http://www.w3.org/2000/svg">
<g clip-path="url(#clip0_10_25)">
<path d="M24 47.9996C37.2548 47.9996 48 37.2544 48 23.9996C48 10.7447 37.2548 -0.000427246 24 -0.000427246C10.7452 -0.000427246 0 10.7447 0 23.9996C0 37.2544 10.7452 47.9996 24 47.9996Z" fill="#007AB9"/>
<path d="M38.3395 25.9308V35.8255H32.6029V26.5939C32.6029 24.2759 31.7746 22.693 29.6975 22.693C28.1124 22.693 27.1708 23.7587 26.755 24.7906C26.6039 25.1594 26.565 25.6715 26.565 26.1887V35.825H20.8279C20.8279 35.825 20.9049 20.1898 20.8279 18.5714H26.5654V21.0164C26.5539 21.0356 26.5376 21.0544 26.5273 21.0728H26.5654V21.0164C27.3278 19.8433 28.6874 18.1662 31.7357 18.1662C35.5099 18.1662 38.3395 20.6322 38.3395 25.9308ZM14.8264 10.2545C12.864 10.2545 11.5801 11.5427 11.5801 13.2351C11.5801 14.8917 12.8268 16.2171 14.7511 16.2171H14.7883C16.7892 16.2171 18.0334 14.8917 18.0334 13.2351C17.9953 11.5427 16.7892 10.2545 14.8264 10.2545ZM11.9211 35.8255H17.656V18.5714H11.9211V35.8255Z" fill="#F1F2F2"/>
</g>
<defs>
<clipPath id="clip0_10_25">
<rect width="48" height="48" fill="white"/>
</clipPath>
</defs>
</svg>
