<svg width="64" height="18" viewBox="0 0 64 18" fill="none" xmlns="http://www.w3.org/2000/svg">
<g clip-path="url(#clip0_10_10)">
<rect x="61.4648" y="-2" width="10" height="31.57" transform="rotate(45.364 61.4648 -2)" fill="#FFE763"/>
<rect x="10.436" y="-8.36906" width="10" height="31.57" transform="rotate(14.853 10.436 -8.36906)" fill="#FFE763"/>
<rect x="30.7852" y="-6" width="10" height="31.57" transform="rotate(30 30.7852 -6)" fill="#FFE763"/>
<rect x="41.4268" y="-5" width="10" height="31.57" transform="rotate(19.2851 41.4268 -5)" fill="#FFE763"/>
<path d="M12.7051 16L12.1309 14.5132H7.68066L8.62402 11.8164H11.085L7.44482 2.39307H11.8643L17.2886 16H12.7051ZM2.09229 16L6.95264 3.0083L8.9624 8.41211L6.4707 16H2.09229ZM20.3955 16L17.8525 13.457V0.95752H22.3848V13.2827H24.415V16H20.3955ZM27.8501 16L23.7793 5.11035H28.2808L32.1567 16H27.8501ZM32.6182 15.395L30.5879 9.63232L32.0542 5.11035H36.2891L32.6182 15.395ZM39.4473 16L36.73 13.2827V7.82764L39.4473 5.11035H41.2622V16H39.4473ZM41.98 11.6318V9.73486H44.3691V7.82764H41.98V5.11035H45.8252L48.5425 7.82764V11.6318H41.98ZM41.98 16V13.457H48.0708V14.6362L46.7173 16H41.98ZM53.085 16L50.3677 13.2827V7.82764L53.085 5.11035H54.8999V16H53.085ZM55.6177 11.6318V9.73486H58.0068V7.82764H55.6177V5.11035H59.4629L62.1802 7.82764V11.6318H55.6177ZM55.6177 16V13.457H61.7085V14.6362L60.355 16H55.6177Z" fill="black"/>
</g>
<defs>
<clipPath id="clip0_10_10">
<rect width="64" height="18" fill="white"/>
</clipPath>
</defs>
</svg>
