<svg width="87" height="87" viewBox="0 0 87 87" fill="none" xmlns="http://www.w3.org/2000/svg">
<circle cx="43.5" cy="43.5" r="43.5" fill="#FD6E0A"/>
<path fill-rule="evenodd" clip-rule="evenodd" d="M60.2983 45.0589L61.2489 47.3477C61.6183 47.5337 61.9774 47.7404 62.321 47.9677L64.7803 47.6448C65.0967 47.604 65.4183 47.6418 65.7166 47.7549C66.0149 47.868 66.2807 48.0529 66.4905 48.2932C67.646 49.6166 68.533 51.152 69.1023 52.8141C69.3115 53.4289 69.2004 54.1057 68.8078 54.6198L67.2991 56.5883C67.3223 57.0017 67.3223 57.4176 67.2991 57.8257L68.8078 59.7968C69.0014 60.0505 69.1295 60.3479 69.1809 60.6629C69.2323 60.9778 69.2052 61.3006 69.1023 61.6026C68.533 63.2646 67.646 64.8001 66.4905 66.1234C66.2807 66.3638 66.0149 66.5487 65.7166 66.6618C65.4183 66.7749 65.0967 66.8127 64.7803 66.7718L62.321 66.4489C61.9755 66.6754 61.6175 66.8824 61.2489 67.0689L60.2983 69.3577C60.1759 69.6526 59.9827 69.9128 59.7358 70.1151C59.4888 70.3175 59.1958 70.4557 58.8826 70.5177C57.1579 70.8561 55.3838 70.8561 53.6591 70.5177C53.3459 70.4557 53.0528 70.3175 52.8059 70.1151C52.5589 69.9128 52.3657 69.6526 52.2434 69.3577L51.2928 67.0689C50.9235 66.8835 50.5655 66.6765 50.2207 66.4489L47.7613 66.7718C47.4449 66.8127 47.1234 66.7749 46.8251 66.6618C46.5268 66.5487 46.2609 66.3638 46.0512 66.1234C44.8957 64.8001 44.0086 63.2646 43.4394 61.6026C43.3364 61.3006 43.3094 60.9778 43.3608 60.6629C43.4121 60.3479 43.5403 60.0505 43.7339 59.7968L45.2426 57.8283C45.2193 57.4162 45.2193 57.0031 45.2426 56.5909L43.7339 54.6198C43.5403 54.3662 43.4121 54.0687 43.3608 53.7538C43.3094 53.4389 43.3364 53.1161 43.4394 52.8141C44.0086 51.152 44.8957 49.6166 46.0512 48.2932C46.2609 48.0529 46.5268 47.868 46.8251 47.7549C47.1234 47.6418 47.4449 47.604 47.7613 47.6448L50.2207 47.9677C50.5668 47.7404 50.9259 47.5337 51.2928 47.3477L52.2434 45.0589C52.3657 44.764 52.5589 44.5039 52.8059 44.3015C53.0528 44.0992 53.3459 43.9609 53.6591 43.899C55.3838 43.5605 57.1579 43.5605 58.8826 43.899C59.1958 43.9609 59.4888 44.0992 59.7358 44.3015C59.9827 44.5039 60.1759 44.764 60.2983 45.0589ZM56.2708 53.9792C55.4144 53.9792 54.5931 54.3194 53.9875 54.925C53.3819 55.5305 53.0417 56.3519 53.0417 57.2083C53.0417 58.0648 53.3819 58.8861 53.9875 59.4917C54.5931 60.0973 55.4144 60.4375 56.2708 60.4375C57.1273 60.4375 57.9486 60.0973 58.5542 59.4917C59.1598 58.8861 59.5 58.0648 59.5 57.2083C59.5 56.3519 59.1598 55.5305 58.5542 54.925C57.9486 54.3194 57.1273 53.9792 56.2708 53.9792Z" fill="white"/>
<path fill-rule="evenodd" clip-rule="evenodd" d="M50.0579 70.7708H25.8986C24.0145 70.7708 22.2075 70.0224 20.8752 68.6901C19.5429 67.3578 18.7944 65.5508 18.7944 63.6667V22.3333C18.7944 20.4492 19.5429 18.6422 20.8752 17.3099C22.2075 15.9776 24.0145 15.2292 25.8986 15.2292H48.0765C49.2778 15.2292 50.4273 15.7045 51.2747 16.5544L62.6775 27.9572C63.5248 28.8046 64.0028 29.9542 64.0028 31.1528V45.1416L63.1761 45.2501L62.6853 44.0669C62.3992 43.379 61.9477 42.7725 61.3709 42.3011C60.794 41.8297 60.1097 41.508 59.3786 41.3647C57.3264 40.9617 55.2153 40.9617 53.1631 41.3647C52.432 41.508 51.7477 41.8297 51.1708 42.3011C50.594 42.7725 50.1425 43.379 49.8564 44.0669L49.3656 45.2501L48.0972 45.0847C47.3587 44.9878 46.6077 45.0747 45.911 45.3379C45.2142 45.6011 44.5933 46.0324 44.1033 46.5934C42.7284 48.1706 41.6729 49.9999 40.9956 51.9797C40.5048 53.4082 40.7631 54.9918 41.6828 56.1905L42.4629 57.2083L41.6828 58.2262C41.2298 58.8169 40.9301 59.5106 40.8102 60.2452C40.6903 60.9799 40.754 61.7329 40.9956 62.437C41.6729 64.4167 42.7284 66.246 44.1033 67.8232C45.0979 68.9625 46.5963 69.5282 48.0972 69.3319L49.3656 69.1666L49.8564 70.3497C49.9184 70.4944 49.9856 70.6339 50.0579 70.7708ZM47.8569 18.6908V28.7917C47.8569 29.4768 48.1291 30.1339 48.6136 30.6183C49.098 31.1028 49.7551 31.375 50.4403 31.375H60.5411C60.4124 31.0937 60.2349 30.8374 60.0167 30.6181L48.6138 19.2152C48.3952 18.9963 48.1388 18.8186 47.8569 18.6908ZM28.4819 31.9717H40.1069C40.6208 31.9717 41.1136 31.7676 41.477 31.4043C41.8403 31.0409 42.0444 30.5481 42.0444 30.0342C42.0444 29.5204 41.8403 29.0276 41.477 28.6642C41.1136 28.3009 40.6208 28.0967 40.1069 28.0967H28.4819C27.9681 28.0967 27.4753 28.3009 27.1119 28.6642C26.7486 29.0276 26.5444 29.5204 26.5444 30.0342C26.5444 30.5481 26.7486 31.0409 27.1119 31.4043C27.4753 31.7676 27.9681 31.9717 28.4819 31.9717ZM28.4819 59.1458H37.5236C38.0375 59.1458 38.5303 58.9417 38.8936 58.5783C39.257 58.215 39.4611 57.7222 39.4611 57.2083C39.4611 56.6945 39.257 56.2017 38.8936 55.8383C38.5303 55.475 38.0375 55.2708 37.5236 55.2708H28.4819C27.9681 55.2708 27.4753 55.475 27.1119 55.8383C26.7486 56.2017 26.5444 56.6945 26.5444 57.2083C26.5444 57.7222 26.7486 58.215 27.1119 58.5783C27.4753 58.9417 27.9681 59.1458 28.4819 59.1458ZM28.4819 50.1042H37.5236C38.0375 50.1042 38.5303 49.9 38.8936 49.5367C39.257 49.1733 39.4611 48.6805 39.4611 48.1667C39.4611 47.6528 39.257 47.16 38.8936 46.7966C38.5303 46.4333 38.0375 46.2292 37.5236 46.2292H28.4819C27.9681 46.2292 27.4753 46.4333 27.1119 46.7966C26.7486 47.16 26.5444 47.6528 26.5444 48.1667C26.5444 48.6805 26.7486 49.1733 27.1119 49.5367C27.4753 49.9 27.9681 50.1042 28.4819 50.1042ZM28.4819 41.0625H46.5653C47.0791 41.0625 47.5719 40.8584 47.9353 40.495C48.2986 40.1317 48.5028 39.6388 48.5028 39.125C48.5028 38.6111 48.2986 38.1183 47.9353 37.755C47.5719 37.3916 47.0791 37.1875 46.5653 37.1875H28.4819C27.9681 37.1875 27.4753 37.3916 27.1119 37.755C26.7486 38.1183 26.5444 38.6111 26.5444 39.125C26.5444 39.6388 26.7486 40.1317 27.1119 40.495C27.4753 40.8584 27.9681 41.0625 28.4819 41.0625Z" fill="white"/>
</svg>
