<svg width="87" height="87" viewBox="0 0 87 87" fill="none" xmlns="http://www.w3.org/2000/svg">
<circle cx="43.5" cy="43.5" r="43.5" fill="#FD6E0A"/>
<path d="M74.0027 45.2572C74.0985 47.5462 73.2824 49.7798 71.7335 51.4679C70.1846 53.156 68.0293 54.1607 65.7405 54.2617C65.6066 54.2679 65.473 54.2711 65.3397 54.2711C64.7315 54.2706 64.1252 54.2048 63.5311 54.0748C61.7684 56.7963 59.4571 59.12 56.745 60.8972C54.0329 62.6743 50.9798 63.8659 47.7808 64.3956C47.4024 65.5071 46.6476 66.4516 45.6468 67.0656C44.6459 67.6797 43.462 67.9248 42.2996 67.7585C41.1373 67.5922 40.0695 67.0251 39.281 66.155C38.4924 65.285 38.0326 64.1669 37.981 62.9938C37.9295 61.8207 38.2894 60.6665 38.9985 59.7307C39.7077 58.7948 40.7216 58.1361 41.8649 57.8685C43.0081 57.6009 44.209 57.7411 45.2599 58.265C46.3107 58.7888 47.1456 59.6634 47.62 60.7375C52.1237 59.9045 56.1923 57.5176 59.1167 53.9928C62.0411 50.4679 63.6359 46.0286 63.6231 41.4486C63.6231 30.6282 54.8202 21.8253 43.9999 21.8253C33.1796 21.8253 24.3767 30.6282 24.3767 41.4486C24.3761 44.7944 25.2312 48.0848 26.8607 51.007C26.9159 51.1034 26.9573 51.2071 26.9838 51.315C27.1412 51.7525 27.1244 52.2337 26.9368 52.6591C26.7493 53.0846 26.4053 53.4216 25.9762 53.6004C24.9254 54.0427 23.7968 54.2704 22.6568 54.2702C22.5226 54.2702 22.3881 54.2671 22.2534 54.2609C19.9656 54.1586 17.8116 53.1533 16.2639 51.4653C14.7162 49.7773 13.901 47.5445 13.9971 45.2564C14.0357 44.3439 14.0142 43.5298 13.9931 42.7426C13.9735 42.0014 13.953 41.2348 13.9867 40.435C14.0872 38.2009 15.0482 36.0923 16.6685 34.5509C18.2888 33.0095 20.4427 32.1548 22.6791 32.1659C26.2702 23.9494 34.4747 18.1925 43.9999 18.1925C53.5251 18.1925 61.7297 23.9494 65.3209 32.166C67.5575 32.1532 69.712 33.0072 71.3326 34.5486C72.9532 36.0901 73.9139 38.1993 74.013 40.4337C74.0468 41.2347 74.0264 42.0011 74.0066 42.7423C73.9857 43.5297 73.9641 44.3442 74.0027 45.2572ZM59.2341 41.4486C59.2332 43.7825 58.6963 46.085 57.6648 48.1785C56.6333 50.2721 55.1347 52.1008 53.2846 53.5236C51.4345 54.9463 49.2824 55.9252 46.9942 56.3847C44.706 56.8441 42.3428 56.7719 40.0869 56.1736L33.9207 59.7346C33.6095 59.9142 33.2521 59.9976 32.8936 59.9741C32.5351 59.9507 32.1916 59.8214 31.9066 59.6027C31.6215 59.384 31.4077 59.0856 31.2923 58.7454C31.1768 58.4052 31.1648 58.0384 31.2578 57.6913L32.8337 51.8125C30.2239 48.9916 28.7718 45.2915 28.7663 41.4486C28.7663 33.0461 35.5998 26.2108 43.9999 26.2108C52.4001 26.2108 59.2341 33.0461 59.2341 41.4486ZM39.7647 41.4486C39.7647 40.9668 39.5733 40.5048 39.2326 40.1642C38.892 39.8235 38.43 39.6322 37.9482 39.6322H37.9452C37.5861 39.6328 37.2353 39.7399 36.937 39.9399C36.6387 40.1399 36.4065 40.4238 36.2695 40.7558C36.1325 41.0878 36.0971 41.4529 36.1675 41.805C36.238 42.1571 36.4113 42.4805 36.6654 42.7341C36.9196 42.9878 37.2432 43.1605 37.5955 43.2303C37.9477 43.3001 38.3128 43.264 38.6445 43.1264C38.9762 42.9888 39.2597 42.756 39.4591 42.4573C39.6586 42.1587 39.765 41.8077 39.765 41.4486H39.7647ZM45.8167 41.4486C45.8165 41.3891 45.8133 41.3297 45.807 41.2706C45.8013 41.2112 45.7924 41.1522 45.7805 41.0938C45.7696 41.0356 45.755 40.9781 45.7368 40.9218C45.7199 40.8649 45.6993 40.8092 45.6775 40.7535C45.6557 40.6978 45.6291 40.6457 45.6013 40.5936C45.5736 40.5413 45.5433 40.4903 45.5104 40.4411C45.4773 40.3913 45.4417 40.3432 45.4037 40.297C45.3664 40.2507 45.3264 40.2066 45.284 40.165C45.2428 40.1226 45.198 40.0826 45.152 40.0439C45.1059 40.0075 45.0574 39.9712 45.0078 39.9385C44.9585 39.9057 44.9076 39.8754 44.8553 39.8477C44.8031 39.8198 44.7488 39.7944 44.6941 39.7714C44.6396 39.7486 44.5839 39.7288 44.5272 39.7121C44.4139 39.6757 44.2969 39.6521 44.1784 39.6418C44.0005 39.6247 43.8211 39.6333 43.6456 39.6673C43.5872 39.6792 43.5294 39.6942 43.4725 39.7121C43.4158 39.7287 43.36 39.7485 43.3054 39.7714C43.2509 39.7944 43.1965 39.8198 43.1444 39.8477C43.0923 39.8756 43.0415 39.9058 42.9917 39.9385C42.8923 40.0045 42.7998 40.0804 42.7157 40.165C42.6732 40.2066 42.6331 40.2507 42.5957 40.297C42.5582 40.3432 42.5231 40.3913 42.4905 40.4411C42.4572 40.4903 42.4265 40.5412 42.3984 40.5936C42.3705 40.6455 42.3454 40.6989 42.3232 40.7535C42.3003 40.8085 42.28 40.8647 42.2627 40.9218C42.2459 40.9775 42.2313 41.0356 42.2192 41.0938C42.2073 41.1522 42.1983 41.2112 42.1925 41.2706C42.1865 41.3299 42.184 41.3892 42.184 41.4486C42.184 41.5079 42.1865 41.5684 42.1925 41.6278C42.1984 41.6867 42.2074 41.7453 42.2192 41.8034C42.2313 41.8615 42.2459 41.9196 42.2627 41.9765C42.2801 42.0332 42.3003 42.089 42.3232 42.1436C42.3454 42.1986 42.3705 42.2524 42.3984 42.3047C42.4262 42.3568 42.4578 42.4076 42.4905 42.4573C42.5231 42.5067 42.5582 42.5544 42.5957 42.6002C42.6334 42.6466 42.6735 42.691 42.7157 42.7334C42.7581 42.7745 42.8017 42.8157 42.8489 42.8532C42.8945 42.8911 42.9421 42.9262 42.9917 42.9586C43.0415 42.9913 43.0922 43.0228 43.1444 43.0506C43.2495 43.1054 43.3594 43.1508 43.4725 43.1863C43.5293 43.2032 43.5875 43.2177 43.6456 43.2298C43.7623 43.2537 43.8812 43.2655 44.0004 43.265C44.4816 43.2637 44.9428 43.0727 45.284 42.7334C45.3677 42.6484 45.4435 42.556 45.5104 42.4573C45.5431 42.4076 45.5734 42.3568 45.6013 42.3047C45.6291 42.2526 45.6545 42.1981 45.6775 42.1436C45.7005 42.0891 45.7199 42.0322 45.7368 41.9765C45.7549 41.9198 45.7695 41.8619 45.7805 41.8034C45.7923 41.7453 45.8012 41.6867 45.807 41.6278C45.8132 41.5682 45.8163 41.5083 45.8163 41.4483L45.8167 41.4486ZM51.8714 41.4486C51.8714 40.9668 51.68 40.5048 51.3393 40.1642C50.9987 39.8235 50.5367 39.6322 50.055 39.6322H50.0514C49.6923 39.6328 49.3415 39.74 49.0433 39.94C48.745 40.14 48.5128 40.4239 48.3758 40.7559C48.2389 41.0878 48.2034 41.453 48.2739 41.8051C48.3444 42.1572 48.5176 42.4805 48.7718 42.7342C49.026 42.9879 49.3496 43.1605 49.7019 43.2303C50.0541 43.3001 50.4192 43.2639 50.7509 43.1264C51.0826 42.9888 51.3661 42.756 51.5655 42.4573C51.7649 42.1587 51.8714 41.8077 51.8714 41.4486Z" fill="white"/>
</svg>
